<svg width="134" height="113" viewBox="0 0 134 113" fill="none" xmlns="http://www.w3.org/2000/svg">
<path d="M125.532 96.4445C127.633 96.651 129.411 96.247 130.834 95.2191C135.009 92.2069 135.054 84.643 130.973 73.3486C127.166 62.804 120.172 50.2033 111.27 37.8855C102.368 25.5676 92.6173 14.9601 83.8049 8.02459C78.9252 4.182 74.6425 1.70408 71.0646 0.626715C67.7291 -0.383311 65.0131 -0.176839 62.9839 1.2776C62.0443 1.96449 61.2988 2.88322 60.8201 3.9441L0 113L125.532 96.4445ZM63.6079 5.42094L64.0074 4.69822C64.2319 4.36218 64.5129 4.06757 64.8379 3.82738C67.6302 1.81182 73.9959 4.3032 81.8611 10.4935C90.4535 17.254 99.9931 27.6326 108.725 39.726C127.624 65.9058 134.578 88.6561 128.998 92.6693C128.895 92.7395 128.789 92.804 128.679 92.8623L125.537 93.2753C124.929 93.1892 124.328 93.0556 123.741 92.8758C120.599 91.9241 116.558 89.5853 112.002 86.0031C103.414 79.2427 93.8743 68.8641 85.1427 56.7752C67.9624 33.0194 60.6495 12.1006 63.6079 5.42094ZM60.0165 11.8941C60.3712 15.0678 61.3273 18.8296 62.8806 23.1166C66.6919 33.6658 73.6907 46.2619 82.5884 58.5798C91.486 70.8976 101.241 81.5051 110.049 88.4407C112.742 90.6152 115.637 92.5258 118.695 94.1462L5.83151 109.032L60.0165 11.8941Z" fill="black"/>
<path d="M5.84564 108.964L60.0433 12.1071C60.3979 15.2707 61.3539 19.0204 62.9069 23.2936C66.7175 33.8089 73.715 46.3646 82.6111 58.6429C91.5071 70.9212 101.26 81.4947 110.067 88.408C112.759 90.5755 115.654 92.48 118.711 94.0952L5.84564 108.964Z" fill="#7FBC8C"/>
<path d="M63.5933 5.41778L63.9928 4.69507C64.2173 4.35904 64.4983 4.06444 64.8233 3.82425C67.6156 1.80874 73.9812 4.30006 81.8463 10.4902C90.4385 17.2505 99.9781 27.6288 108.71 39.7219C127.609 65.9011 134.563 88.6508 128.983 92.6638C128.88 92.734 128.774 92.7985 128.664 92.8569L125.521 93.2699C124.913 93.1837 124.313 93.0501 123.726 92.8704C120.583 91.9187 116.543 89.58 111.987 85.9978C103.399 79.2376 93.8593 68.8593 85.1279 56.7707C67.9478 33.0155 60.6349 12.0972 63.5933 5.41778Z" fill="#BAFCA2"/>
</svg>
