<svg width="145" height="132" viewBox="0 0 145 132" fill="none" xmlns="http://www.w3.org/2000/svg">
<path d="M43.1477 30.5361L23.6111 72.1266L80.8722 58.6208L97.2222 18.6582L43.1477 30.5361ZM79.4513 56.9539L44.2015 65.2664L53.9753 44.4795L87.8682 36.376L79.4513 56.9539ZM52.6156 42.8014L41.7713 65.8378L27.0813 69.3028L44.4907 32.2281L94.005 21.3566L88.7691 34.1515L52.6156 42.8014Z" fill="black"/>
<path d="M32.3188 20.5767L0 89.1191L24.6799 132L118.151 111.457L145 43.3824L120.023 0L32.3188 20.5767ZM25.6323 129.799L2.61572 89.7182L91.7083 68.7988L115.866 109.966L25.6323 129.799ZM91.4417 66.8568L2.82953 87.6619L33.6516 22.2652L117.907 2.50207L91.4417 66.8568ZM142.829 43.5607L117.227 108.481L93.2522 67.5951L119.712 3.285L142.829 43.5607Z" fill="black"/>
<path d="M115.833 109.944L25.5318 129.772L2.5 89.6999L91.6512 68.7848L115.833 109.944Z" fill="#FF69B4"/>
<path d="M119.865 3.34177L143.056 43.6435L117.384 108.608L93.3334 67.698L119.865 3.34177Z" fill="#FF69B4"/>
<path d="M33.5762 22.2887L2.77783 87.7215L91.3217 66.9049L117.778 2.50633L33.5762 22.2887ZM80.7449 58.837L23.607 72.3439L43.1015 30.7497L97.0597 18.8708L80.7449 58.837Z" fill="#FF69B4"/>
<path d="M94.1666 21.443L88.9291 34.2261L52.7561 42.8651L41.9195 65.8801L27.2222 69.3418L44.637 32.31L94.1666 21.443Z" fill="#FFB2EF"/>
</svg>
