<svg width="134" height="90" viewBox="0 0 134 90" fill="none" xmlns="http://www.w3.org/2000/svg">
<path d="M101.741 19.2265C100.435 16.2432 95.3597 15.5634 86.6644 17.1942C78.7636 18.6732 68.8386 21.9206 58.714 26.3323C48.5895 30.744 39.4662 35.8066 33.0091 40.5799C25.9027 45.8414 22.9608 50.0144 24.2703 52.9942C25.1155 54.9252 27.5351 55.8871 31.5037 55.8871C33.9045 55.85 36.2978 55.6081 38.6572 55.1638L38.6826 55.1928L38.737 55.1458C38.9402 55.1096 39.1397 55.0807 39.3464 55.0373C47.2473 53.5547 57.1723 50.3074 67.2787 45.8956C77.3851 41.4839 86.5302 36.425 92.9872 31.6516C100.108 26.3757 103.05 22.2098 101.741 19.2265ZM66.292 43.5741C58.2424 47.0781 50.3307 49.8336 43.5254 51.5296C49.598 47.3276 57.731 42.9232 66.7418 38.9996C74.0087 35.8281 81.5173 33.238 89.1965 31.2538C83.0768 35.416 75.0671 39.7554 66.292 43.5741ZM94.0755 27.5762C85.8047 29.1384 75.2122 32.5376 65.7116 36.6817C54.1941 41.7009 44.026 47.5302 37.6488 52.7591C33.4553 53.439 27.4408 53.8729 26.6101 51.9853C25.6923 49.8915 31.159 45.1146 34.5363 42.6122C40.841 37.9474 49.7975 32.9896 59.7479 28.6502C69.6983 24.3108 79.431 21.1286 87.1505 19.6785C89.6501 19.1967 92.1867 18.9305 94.7321 18.883C97.0646 18.883 98.9873 19.2446 99.448 20.2391C100.119 21.8482 97.0501 25.0485 94.061 27.5762H94.0755Z" fill="black"/>
<path d="M133.097 26.6573L125.36 8.97862C122.499 2.44171 113.239 -0.692375 99.2709 0.12837C85.7353 0.927326 69.2221 5.32159 52.778 12.5013C36.3338 19.681 21.8748 28.8145 12.1094 38.2022C2.02401 47.8805 -1.95703 56.807 0.904243 63.3367L8.64096 81.019C11.1859 86.8659 18.8971 90 30.5058 90C31.8632 90 33.2714 89.9564 34.7305 89.8692C48.2661 89.0703 64.7793 84.676 81.2234 77.4927C97.6676 70.3094 112.127 61.1831 121.892 51.799C131.977 42.1171 135.955 33.187 133.097 26.6573ZM3.23468 62.3198C0.867855 56.916 4.74712 48.792 13.8727 40.0289C23.4417 30.8482 37.6209 21.8999 53.796 14.8364C69.9711 7.77292 86.1752 3.44767 99.4236 2.6705C100.816 2.58334 102.158 2.54704 103.448 2.54704C113.879 2.54704 120.921 5.18721 123.03 9.9991C125.393 15.4029 121.518 23.5269 112.388 32.29C102.823 41.4743 88.6439 50.4263 72.4688 57.4898C56.2937 64.5533 40.0895 68.8712 26.8411 69.6557C14.2035 70.4002 5.6015 67.7273 3.23468 62.3198ZM120.129 49.9723C110.56 59.153 96.3806 68.1013 80.2055 75.1648C64.0304 82.2283 47.8262 86.5572 34.5778 87.3344C21.9402 88.0607 13.3382 85.406 10.975 79.9985L6.10686 68.8785C10.0007 71.141 15.6469 72.3213 22.7692 72.3213C24.1253 72.3213 25.5323 72.2813 26.9902 72.1942C40.5294 71.3988 57.0426 67.001 73.4868 59.8213C89.9309 52.6415 104.39 43.5153 114.152 34.1276C120.747 27.794 124.731 21.7801 125.899 16.5651L130.778 27.6778C133.134 33.0817 129.254 41.2165 120.129 49.9687V49.9723Z" fill="black"/>
<path d="M123.153 9.98201C121.042 5.17685 113.992 2.54034 103.549 2.54034C102.257 2.54034 100.914 2.57662 99.5199 2.66366C86.2566 3.43974 70.0378 7.74081 53.8408 14.8126C37.6437 21.8843 23.4522 30.802 13.8724 39.9699C4.73651 48.7207 0.852867 56.8333 3.22236 62.2296C5.59186 67.6259 14.2036 70.2986 26.8554 69.5552C40.1188 68.7719 56.3376 64.478 72.5346 57.4063C88.7316 50.3345 102.923 41.4132 112.499 32.2417C121.639 23.5054 125.519 15.3928 123.153 9.98201ZM93.285 31.5708C86.8062 36.3578 77.634 41.4314 67.4899 45.8557C57.3459 50.2801 47.3765 53.5368 39.4636 55.0236C39.2562 55.0672 39.056 55.0962 38.8521 55.1324L38.7976 55.1796L38.7721 55.1506C36.4047 55.5961 34.0034 55.8387 31.5944 55.8759C27.6162 55.8759 25.1848 54.9076 24.3367 52.9746C23.0227 49.9864 25.9746 45.8013 33.105 40.5247C39.5838 35.7377 48.756 30.6642 58.8964 26.2362C69.0368 21.8082 79.0134 18.5551 86.9409 17.0719C95.6763 15.4363 100.772 16.1181 102.068 19.11C103.364 22.1019 100.415 26.3014 93.285 31.5853V31.5708Z" fill="#F2CFFF"/>
<path d="M94.3712 27.5691C86.0644 29.1322 75.4258 32.5333 65.8839 36.6797C54.3163 41.7018 44.104 47.5344 37.699 52.7663C33.4873 53.4465 27.4466 53.8807 26.6122 51.992C25.6905 49.897 31.181 45.1174 34.573 42.6136C40.9051 37.9461 49.9006 32.9856 59.8943 28.6437C69.888 24.3019 79.663 21.1179 87.4161 19.667C89.9265 19.1848 92.4741 18.9185 95.0307 18.871C97.3733 18.871 99.3043 19.2328 99.767 20.2278C100.456 21.8379 97.3734 25.04 94.3712 27.5691Z" fill="black"/>
<path d="M120.14 50.042C110.576 59.2103 96.4035 68.1428 80.2362 75.1939C64.0689 82.245 47.8726 86.5626 34.6306 87.3421C21.9992 88.0671 13.4013 85.4171 11.0393 80.0191L6.17346 68.9186C10.0654 71.1772 15.7089 72.3554 22.8277 72.3554C24.1832 72.3554 25.5895 72.3155 27.0467 72.2285C40.5793 71.4309 57.0846 67.0444 73.5208 59.8737C89.9569 52.703 104.409 43.5964 114.166 34.2252C120.758 27.9064 124.741 21.8994 125.907 16.6935L130.784 27.7904C133.139 33.1847 129.261 41.3052 120.14 50.042Z" fill="#A388EE"/>
</svg>
