<svg width="148" height="81" viewBox="0 0 148 81" fill="none" xmlns="http://www.w3.org/2000/svg">
<path d="M142.001 42.751C139.823 40.3626 137.158 38.4734 134.189 37.2116H134.152L32.8747 2.43546C30.1364 1.04946 27.1468 0.235958 24.0868 0.0441804C21.0268 -0.147598 17.9598 0.28632 15.0714 1.31968C12.183 2.35305 9.5331 3.96438 7.28189 6.05631C5.03067 8.14823 3.22492 10.6773 1.97382 13.4906C0.722717 16.3038 0.0522443 19.3429 0.00293328 22.424C-0.0463777 25.505 0.526491 28.5642 1.68692 31.4164C2.84735 34.2687 4.57123 36.8548 6.75433 39.0184C8.93744 41.182 11.5344 42.8782 14.3883 44.0044L14.6013 44.0768C15.0839 44.2658 15.5727 44.4327 16.0677 44.587L117.339 79.5427C122.116 81.3474 127.36 81.4798 132.222 79.9184C137.084 78.357 141.279 75.1932 144.131 70.9385C146.982 66.6837 148.322 61.5868 147.934 56.4718C147.547 51.3567 145.454 46.5226 141.994 42.751H142.001ZM16.7946 42.5054L15.3032 41.9889C10.2801 40.0299 6.2221 36.1685 4.00131 31.2346C1.78052 26.3006 1.5742 20.688 3.42667 15.6028C5.27914 10.5176 9.04252 6.36572 13.9081 4.03949C18.7737 1.71325 24.3531 1.3983 29.4472 3.16232C34.5414 4.92634 38.7437 8.62855 41.151 13.4733C43.5584 18.318 43.9787 23.9186 42.3215 29.0714C40.6644 34.2243 37.0621 38.5181 32.2889 41.0301C27.5156 43.5421 21.9523 44.0718 16.7946 42.5054ZM118.103 77.4611L25.3328 45.4404C29.4969 44.9671 33.4489 43.3429 36.75 40.7483C40.0511 38.1537 42.572 34.6902 44.0327 30.7426C45.4935 26.7949 45.8369 22.5175 45.0248 18.3855C44.2128 14.2535 42.277 10.4285 39.4326 7.33554C39.2634 7.15289 39.0817 6.97339 38.9093 6.79389L133.365 39.2303C138.285 41.3497 142.184 45.3197 144.229 50.2912C146.274 55.2627 146.303 60.8412 144.308 65.8335C142.314 70.8258 138.456 74.8357 133.558 77.0057C128.66 79.1757 123.112 79.3335 118.1 77.4453L118.103 77.4611Z" fill="black"/>
<path d="M36.6479 38.0355C34.0137 40.4731 30.7918 42.1765 27.3012 42.9769C23.8106 43.7773 20.1725 43.647 16.7475 42.5988L15.2522 42.0809C11.0991 40.448 7.58749 37.5006 5.24804 33.684C2.90859 29.8674 1.8684 25.3891 2.28462 20.9257C2.70085 16.4623 4.5509 12.2563 7.55519 8.94336C10.5595 5.63039 14.5548 3.39042 18.9374 2.56192C23.3201 1.73341 27.8518 2.36139 31.848 4.35097C35.8442 6.34055 39.0877 9.5836 41.0883 13.5901C43.089 17.5966 43.7381 22.1489 42.9376 26.5591C42.137 30.9692 39.9304 34.9976 36.651 38.0355H36.6479Z" fill="#87CEEB"/>
<path d="M139.219 73.3341C136.434 75.9268 132.983 77.6869 129.254 78.4161C125.526 79.1452 121.669 78.8143 118.118 77.4607L25.3983 45.5036C29.5601 45.0312 33.51 43.4103 36.8093 40.8208C40.1085 38.2314 42.628 34.7748 44.088 30.8349C45.5479 26.8951 45.8912 22.6262 45.0796 18.5024C44.268 14.3786 42.3333 10.5613 39.4904 7.47441C39.3213 7.29212 39.1397 7.11298 38.9674 6.93384L133.372 39.3058C136.515 40.6546 139.272 42.7713 141.392 45.4632C143.512 48.1551 144.926 51.3366 145.507 54.7177C146.088 58.0988 145.817 61.572 144.718 64.8209C143.619 68.0698 141.727 70.991 139.215 73.3184L139.219 73.3341Z" fill="#69D2E7"/>
</svg>
