<svg width="203" height="203" viewBox="0 0 203 203" fill="none" xmlns="http://www.w3.org/2000/svg">
<g filter="url(#filter0_d_2_17)">
<path d="M70.0315 38.1509C69.8017 36.2272 72.1679 35.1333 73.4846 36.5545L106.012 71.666C106.6 72.3016 107.532 72.4858 108.318 72.1222L151.762 52.0372C153.521 51.2242 155.292 53.1366 154.348 54.828L131.006 96.613C130.584 97.3694 130.696 98.3119 131.285 98.9475L163.812 134.059C165.129 135.48 163.857 137.756 161.957 137.38L115.004 128.093C114.154 127.925 113.292 128.323 112.87 129.08L89.5281 170.865C88.5832 172.556 86.026 172.05 85.7962 170.127L80.1193 122.602C80.0165 121.742 79.3715 121.045 78.5215 120.877L31.5687 111.59C29.668 111.214 29.3589 108.626 31.1175 107.813L74.5618 87.7281C75.3483 87.3645 75.8112 86.5359 75.7084 85.6755L70.0315 38.1509Z" fill="#9723C9"/>
<path d="M71.5212 37.9726C71.4641 37.492 72.0545 37.2191 72.3837 37.5739L104.912 72.6856C105.942 73.7976 107.571 74.1198 108.947 73.4837L152.391 53.3989C152.831 53.1956 153.274 53.6735 153.038 54.0964L129.697 95.881C128.957 97.2047 129.154 98.8541 130.185 99.9664L162.712 135.078C163.041 135.434 162.723 136.002 162.248 135.908L115.295 126.622C113.807 126.328 112.3 127.025 111.56 128.348L88.2184 170.133C87.9823 170.556 87.3432 170.43 87.2855 169.949L81.6082 122.424C81.4282 120.919 80.2994 119.7 78.812 119.406L31.8599 110.119C31.3848 110.025 31.3076 109.378 31.7473 109.174L75.1915 89.0895C76.5675 88.4532 77.3773 87.0034 77.1977 85.4981L71.5212 37.9726Z" stroke="black" stroke-width="3"/>
</g>
<defs>
<filter id="filter0_d_2_17" x="29.9561" y="35.9075" width="140.396" height="139.984" filterUnits="userSpaceOnUse" color-interpolation-filters="sRGB">
<feFlood flood-opacity="0" result="BackgroundImageFix"/>
<feColorMatrix in="SourceAlpha" type="matrix" values="0 0 0 0 0 0 0 0 0 0 0 0 0 0 0 0 0 0 127 0" result="hardAlpha"/>
<feOffset dx="6" dy="4"/>
<feComposite in2="hardAlpha" operator="out"/>
<feColorMatrix type="matrix" values="0 0 0 0 0 0 0 0 0 0 0 0 0 0 0 0 0 0 1 0"/>
<feBlend mode="normal" in2="BackgroundImageFix" result="effect1_dropShadow_2_17"/>
<feBlend mode="normal" in="SourceGraphic" in2="effect1_dropShadow_2_17" result="shape"/>
</filter>
</defs>
</svg>
